<svg width="60" height="60" viewBox="0 0 60 60" fill="none" xmlns="http://www.w3.org/2000/svg">
<path d="M39.5942 23.8123L42.2042 26.8834C42.5051 27.2272 42.7669 27.5125 42.8763 27.6727C43.6577 28.4502 44.0953 29.4974 44.0953 30.5914C44.0211 31.8808 43.181 32.7599 42.4035 33.7016L40.5749 35.8467L39.6215 36.9602C39.5863 36.9993 39.5629 37.0462 39.559 37.097C39.5551 37.1478 39.559 37.1986 39.5824 37.2455C39.602 37.2924 39.641 37.3314 39.684 37.3588C39.7309 37.3861 39.7817 37.3979 39.8325 37.394H49.3584C50.8119 37.394 52.6444 38.6169 52.5389 40.4729C52.5389 41.3169 52.1951 42.1257 51.5895 42.7196C50.9838 43.3174 50.1633 43.6534 49.3076 43.6573H34.3897C33.409 43.6573 30.7676 43.7628 30.0292 41.5122C29.8729 41.0433 29.8494 40.5354 29.9667 40.0548C30.1816 39.3437 30.5215 38.6716 30.9708 38.0777C31.721 36.9642 32.5337 35.8545 33.3347 34.7761C34.3662 33.3656 35.429 31.998 36.4723 30.5601C36.5074 30.5133 36.5309 30.4546 36.5309 30.396C36.5309 30.3374 36.5113 30.2788 36.4723 30.2319L32.6822 25.7855C32.6588 25.7503 32.6236 25.7269 32.5884 25.7113C32.5533 25.6917 32.5142 25.6839 32.4712 25.6839C32.4282 25.6839 32.3892 25.6917 32.354 25.7113C32.3188 25.7308 32.2837 25.7582 32.2602 25.7855C31.2443 27.1374 26.8018 33.1194 25.8523 34.3307C24.9028 35.5419 22.5702 35.6083 21.2769 34.3307L15.3457 28.4658C15.3105 28.4307 15.2597 28.4033 15.205 28.3916C15.1542 28.3838 15.0995 28.3838 15.0487 28.4072C15.0018 28.4268 14.9588 28.4619 14.9276 28.5088C14.8963 28.5557 14.8807 28.6065 14.8807 28.6573V39.9337C14.8963 40.7347 14.6541 41.52 14.193 42.1804C13.732 42.8368 13.0716 43.3408 12.3097 43.6104C11.8213 43.7784 11.3016 43.8292 10.7898 43.755C10.2779 43.6807 9.78953 43.4932 9.36755 43.1962C8.94556 42.9032 8.60172 42.5125 8.36338 42.0592C8.12894 41.606 8 41.1059 8 40.594V20.3075C8.03517 19.5769 8.30086 18.8736 8.76192 18.3031C9.22689 17.7287 9.85986 17.3146 10.5749 17.1192C11.1883 16.959 11.833 16.959 12.4426 17.127C13.056 17.2911 13.6108 17.6115 14.0563 18.0569L23.1719 27.0514C23.1993 27.0788 23.2344 27.0983 23.2696 27.1139C23.3048 27.1296 23.3438 27.1335 23.3829 27.1296C23.422 27.1296 23.4571 27.1139 23.4923 27.0944C23.5275 27.0749 23.5548 27.0475 23.5783 27.0202L30.0565 18.1781C30.3574 17.8186 30.7325 17.5295 31.1545 17.3302C31.5804 17.1309 32.0414 17.0254 32.5142 17.0176H49.3584C49.8195 17.0176 50.2727 17.1192 50.6947 17.3067C51.1128 17.4943 51.4879 17.7717 51.7926 18.1116C52.0974 18.4516 52.324 18.8579 52.4569 19.2916C52.5897 19.7292 52.6249 20.1864 52.5663 20.6357C52.4491 21.4172 52.0466 22.1283 51.4332 22.6402C50.8197 23.152 50.0461 23.4294 49.2412 23.4177H39.8091C39.7622 23.4177 39.7153 23.4333 39.6762 23.4568C39.6371 23.4802 39.602 23.5193 39.5824 23.5584C39.5629 23.6013 39.5473 23.6443 39.5512 23.6912C39.5512 23.7381 39.5707 23.7811 39.5981 23.8202L39.5942 23.8123Z" fill="url(#paint0_linear_13171_51)"/>
<defs>
<linearGradient id="paint0_linear_13171_51" x1="0.599636" y1="13.251" x2="50.6087" y2="42.1217" gradientUnits="userSpaceOnUse">
<stop offset="0.23" stop-color="#FF0075"/>
<stop offset="0.27" stop-color="#FF0569"/>
<stop offset="0.34" stop-color="#FF1349"/>
<stop offset="0.41" stop-color="#FF2228"/>
<stop offset="0.51" stop-color="#FF4A15"/>
<stop offset="0.61" stop-color="#FF6C05"/>
<stop offset="0.66" stop-color="#FF7900"/>
<stop offset="0.7" stop-color="#FF880C"/>
<stop offset="0.82" stop-color="#FFAC2B"/>
<stop offset="0.92" stop-color="#FFC23E"/>
<stop offset="0.98" stop-color="#FFCB45"/>
</linearGradient>
</defs>
</svg>
